<svg xmlns="http://www.w3.org/2000/svg" viewBox="0 0 107.3 52.99"><title>logo</title><g id="レイヤー_2" data-name="レイヤー 2"><g id="レイヤー_1-2" data-name="レイヤー 1"><path d="M0,.59H8.14V45h13.4v7.4H0Z"/><path d="M24.42,13c0-8.28,4.37-13,12.36-13S49.14,4.74,49.14,13V40c0,8.29-4.37,13-12.36,13S24.42,48.25,24.42,40Zm8.14,27.46c0,3.7,1.63,5.11,4.22,5.11S41,44.18,41,40.48v-28c0-3.7-1.63-5.11-4.22-5.11s-4.22,1.41-4.22,5.11Z"/><path d="M66.6,23.53H78V40c0,8.29-4.15,13-12.14,13S53.72,48.25,53.72,40V13c0-8.28,4.15-13,12.14-13S78,4.74,78,13v5H70.3V12.51c0-3.7-1.63-5.11-4.22-5.11s-4.22,1.41-4.22,5.11v28c0,3.7,1.63,5,4.22,5s4.22-1.33,4.22-5V30.93H66.6Z"/><path d="M82.58,13C82.58,4.74,87,0,94.94,0S107.3,4.74,107.3,13V40c0,8.29-4.37,13-12.36,13S82.58,48.25,82.58,40Zm8.14,27.46c0,3.7,1.63,5.11,4.22,5.11s4.22-1.41,4.22-5.11v-28c0-3.7-1.63-5.11-4.22-5.11s-4.22,1.41-4.22,5.11Z"/></g></g></svg>